<svg id="svg" version="1.1" xmlns="http://www.w3.org/2000/svg" xmlns:xlink="http://www.w3.org/1999/xlink" width="400" height="400" viewBox="0, 0, 400,400"><g id="svgg"><path id="path0" d="M193.200 75.064 C 87.326 82.347,36.667 206.964,107.889 284.922 C 169.901 352.799,281.976 332.285,316.618 246.717 C 350.682 162.576,283.304 68.865,193.200 75.064 M167.400 90.417 C 185.250 92.452,195.306 100.229,199.171 114.987 C 200.829 121.315,199.806 131.958,197.412 133.298 C 195.548 134.340,197.992 136.260,200.573 135.781 C 201.248 135.656,202.873 135.834,204.184 136.177 C 212.086 138.243,219.287 136.000,232.946 127.216 C 243.671 120.320,249.463 117.784,255.600 117.299 L 258.600 117.061 256.600 116.538 C 250.816 115.026,244.312 116.999,232.800 123.756 C 222.634 129.723,222.913 129.577,219.000 130.979 C 218.218 131.259,218.217 131.252,218.964 130.642 C 219.384 130.299,220.196 129.609,220.768 129.109 C 221.340 128.609,222.796 127.392,224.004 126.405 C 225.212 125.419,226.290 124.505,226.400 124.376 C 233.707 115.790,243.540 111.603,256.400 111.603 C 283.932 111.603,302.359 129.995,300.220 155.341 C 299.874 159.441,299.569 159.424,298.155 155.224 C 293.198 140.504,281.804 129.038,268.877 125.759 C 264.304 124.599,261.955 124.486,265.000 125.572 C 282.403 131.780,295.683 149.882,296.306 168.248 C 296.518 174.496,296.045 176.832,295.226 173.583 C 291.581 159.123,283.137 148.755,268.295 140.516 C 268.127 140.422,270.386 142.743,273.315 145.673 C 285.001 157.362,290.559 166.847,291.730 177.100 C 292.004 179.500,291.592 179.236,289.582 175.723 C 285.314 168.263,278.511 161.598,269.447 155.996 C 262.248 151.546,258.224 146.532,259.904 144.104 C 265.549 135.944,258.848 122.630,249.645 123.720 C 246.801 124.057,243.289 125.618,237.419 129.153 C 231.321 132.826,228.406 134.349,226.221 135.003 C 224.081 135.644,224.017 136.253,226.027 136.855 C 228.292 137.534,231.819 136.608,235.943 134.254 C 237.624 133.293,240.440 131.681,242.200 130.670 C 249.377 126.548,253.982 126.861,256.589 131.650 C 259.226 136.497,258.336 140.872,253.744 145.629 C 250.781 148.698,249.868 149.189,251.379 146.900 C 256.151 139.671,251.851 131.634,244.901 134.789 C 235.912 138.869,234.642 154.410,242.710 161.601 C 252.028 169.906,255.125 174.433,257.851 183.729 L 259.355 188.857 258.888 192.552 C 258.251 197.596,257.098 201.141,254.711 205.400 C 253.601 207.380,251.935 210.350,251.009 212.000 C 247.901 217.538,246.777 222.255,246.436 231.200 L 246.200 237.400 245.236 236.048 C 240.055 228.784,235.287 215.596,235.167 208.200 L 235.128 205.800 234.589 207.765 C 232.360 215.885,233.906 222.250,242.124 238.787 C 246.819 248.236,247.411 249.659,247.627 252.015 C 247.760 253.467,248.160 255.239,248.517 255.953 C 250.798 260.525,251.294 272.310,249.479 278.800 C 246.441 289.664,243.137 295.883,237.149 302.006 C 234.720 304.490,233.630 305.479,228.784 309.600 C 227.620 310.590,226.440 311.625,226.162 311.900 C 224.642 313.405,224.410 311.254,225.436 305.170 C 226.678 297.808,229.465 291.530,235.378 282.770 C 242.730 271.877,244.992 263.265,242.883 254.200 L 242.138 251.000 241.893 256.400 C 241.515 264.728,239.890 269.889,235.677 276.139 C 234.617 277.713,232.834 280.350,231.715 282.000 C 227.655 287.986,225.274 292.646,223.044 298.967 C 222.610 300.198,222.149 299.267,221.276 295.400 C 219.024 285.423,219.822 281.501,226.400 270.200 C 233.762 257.551,236.231 251.124,235.378 246.827 L 235.095 245.400 234.554 247.712 C 233.970 250.207,231.733 255.338,230.242 257.600 C 214.293 281.799,213.904 283.083,217.647 299.200 C 218.907 304.626,219.612 311.600,218.900 311.600 C 218.669 311.600,218.255 310.655,217.980 309.500 C 217.387 307.005,215.864 303.339,214.317 300.682 C 213.703 299.628,213.200 298.692,213.200 298.604 C 213.200 298.515,212.571 297.370,211.803 296.059 C 209.950 292.897,208.089 288.184,207.649 285.539 L 207.294 283.400 207.247 286.458 C 207.191 290.116,208.036 293.133,210.841 299.282 C 215.488 309.472,217.425 322.155,213.153 314.427 C 212.719 313.642,211.477 311.650,210.392 310.000 C 199.709 293.751,199.272 289.121,206.418 267.994 C 210.601 255.630,211.449 251.388,210.415 248.000 C 210.060 246.835,210.016 246.934,209.000 251.200 C 208.607 252.850,207.513 256.090,206.570 258.400 C 205.626 260.710,204.060 264.543,203.089 266.918 C 201.094 271.801,200.552 272.604,200.232 271.158 C 199.322 267.046,198.327 260.302,198.121 256.842 L 197.873 252.684 197.105 254.639 C 195.955 257.567,195.839 261.115,196.704 266.900 C 197.123 269.705,197.330 272.000,197.163 272.000 C 195.375 272.000,186.461 255.660,186.059 251.646 C 185.751 248.579,185.061 248.081,184.144 250.265 C 183.491 251.820,183.506 253.250,184.258 261.300 C 184.538 264.307,184.066 264.857,183.227 262.500 C 182.934 261.675,181.635 258.840,180.340 256.200 C 176.297 247.952,176.776 243.110,182.005 239.357 C 185.364 236.946,201.036 235.978,206.600 237.838 C 209.810 238.910,217.567 238.828,220.412 237.692 C 227.931 234.689,230.911 223.718,226.577 215.000 C 225.811 213.460,225.273 212.515,225.380 212.900 C 225.632 213.804,225.553 213.792,223.132 212.565 C 220.716 211.341,217.495 210.923,215.800 211.614 C 214.633 212.090,214.686 212.118,217.713 212.650 C 223.010 213.581,226.400 215.698,226.400 218.075 C 226.400 219.876,226.414 219.872,224.271 218.635 C 220.583 216.506,213.682 215.319,211.032 216.357 C 210.130 216.711,211.861 217.251,216.865 218.179 C 221.296 219.001,226.000 221.647,226.000 223.318 C 226.000 224.873,224.653 229.282,224.114 229.488 C 223.790 229.613,222.908 229.099,222.072 228.298 C 219.148 225.497,214.711 224.002,208.600 223.758 L 204.200 223.583 211.515 226.134 C 222.806 230.071,225.216 232.776,219.062 234.604 C 210.798 237.058,200.335 233.410,197.349 227.033 C 196.381 224.964,196.380 224.958,197.027 219.783 C 197.311 217.507,198.978 215.513,201.541 214.379 C 209.411 210.900,209.876 208.592,202.245 210.884 C 197.108 212.427,186.408 211.307,183.969 208.971 C 182.588 207.647,182.348 203.936,183.389 200.021 C 185.147 193.418,184.991 189.415,182.781 184.365 C 182.147 182.915,181.174 180.305,180.620 178.565 C 178.726 172.614,177.808 171.993,170.600 171.781 C 157.808 171.406,155.062 168.055,158.160 156.600 C 159.725 150.812,159.957 146.667,158.838 144.474 C 157.787 142.414,157.361 142.575,157.004 145.170 C 156.600 148.106,155.788 149.019,155.499 146.862 C 154.406 138.716,144.624 130.854,140.442 134.760 C 137.422 137.581,139.535 142.423,145.453 146.244 C 147.242 147.399,149.106 148.907,149.596 149.595 C 150.560 150.948,150.423 151.649,149.367 150.773 C 149.008 150.475,148.398 150.044,148.010 149.816 C 147.246 149.365,146.695 149.004,141.665 145.667 C 135.557 141.615,133.881 137.553,135.992 131.915 C 138.745 124.562,141.834 124.684,154.200 132.633 C 160.464 136.660,162.503 137.403,167.200 137.374 C 174.722 137.327,178.204 134.814,171.368 134.366 C 167.557 134.117,166.211 133.612,162.000 130.854 C 159.486 129.208,159.738 129.392,156.690 126.973 C 142.879 116.012,128.400 120.150,128.400 135.059 C 128.400 136.795,123.903 141.452,118.600 145.208 C 113.560 148.778,109.726 151.943,107.477 154.393 C 105.117 156.963,104.964 156.854,106.036 153.361 C 109.282 142.785,117.401 131.834,127.602 124.275 C 132.409 120.713,135.873 118.203,136.639 117.728 C 137.058 117.468,135.766 117.852,133.769 118.582 C 121.225 123.165,111.455 132.454,104.199 146.700 C 101.591 151.820,101.524 151.654,103.461 144.873 C 107.225 131.704,121.631 114.848,130.866 112.810 C 147.591 109.119,175.189 119.782,184.057 133.362 C 185.787 136.011,185.855 136.024,184.984 133.550 C 183.128 128.276,178.622 122.985,172.600 119.009 C 165.100 114.057,151.204 108.800,145.617 108.800 C 144.052 108.800,144.813 108.107,146.656 107.854 C 151.687 107.165,159.411 107.802,165.513 109.410 C 176.301 112.252,184.234 118.773,193.362 132.300 C 197.219 138.016,195.076 129.069,191.000 122.438 C 188.851 118.942,182.870 112.823,179.106 110.270 C 177.625 109.265,176.185 108.243,175.906 107.999 C 175.628 107.755,174.005 106.672,172.300 105.592 C 169.246 103.657,168.525 102.652,169.900 102.248 C 177.678 99.963,187.402 106.929,193.256 118.979 C 195.035 122.642,195.232 122.189,193.801 117.721 C 188.105 99.933,169.644 91.195,152.515 98.178 C 148.235 99.923,148.400 99.927,148.400 98.080 C 148.400 92.321,156.268 89.148,167.400 90.417 M210.600 94.634 C 220.013 96.857,227.741 104.130,229.790 112.690 L 230.481 115.580 227.578 118.290 C 225.982 119.781,223.763 121.883,222.647 122.962 C 218.244 127.222,213.664 130.187,209.700 131.344 C 207.249 132.059,207.144 131.860,208.900 129.813 C 218.606 118.499,219.306 100.435,210.145 97.691 C 207.357 96.855,206.316 97.044,208.206 98.042 C 211.841 99.963,212.965 101.825,212.901 105.823 C 212.785 113.058,210.623 113.572,206.200 107.417 C 201.891 101.422,199.553 99.178,195.872 97.508 C 190.651 95.138,202.745 92.778,210.600 94.634 M239.827 96.820 C 246.025 97.918,251.722 100.583,254.778 103.814 C 257.693 106.897,257.598 107.044,252.500 107.319 C 247.170 107.607,242.511 108.735,238.087 110.808 C 234.288 112.588,234.000 112.657,234.000 111.787 C 234.000 109.359,230.593 102.804,227.671 99.611 C 226.170 97.970,226.071 97.285,227.300 97.023 C 227.795 96.918,228.560 96.755,229.000 96.662 C 230.645 96.314,237.538 96.415,239.827 96.820 M130.835 142.072 C 133.723 148.751,133.674 148.840,123.776 154.722 C 120.475 156.683,120.276 156.712,118.982 155.418 C 116.860 153.296,118.083 150.094,122.943 145.045 C 124.777 143.140,127.600 139.155,127.600 138.472 C 127.600 138.057,128.502 137.169,128.712 137.378 C 128.802 137.469,129.758 139.581,130.835 142.072 M257.640 150.478 C 258.823 152.798,261.743 155.455,267.115 159.101 C 272.888 163.019,278.256 167.397,279.779 169.428 C 280.427 170.293,281.069 171.090,281.206 171.200 C 282.130 171.946,285.056 176.396,286.560 179.343 C 294.743 195.381,294.248 216.193,285.360 229.800 C 281.916 235.072,279.968 237.326,272.048 245.206 C 262.321 254.884,259.782 257.669,257.374 261.300 C 255.016 264.855,255.167 265.031,253.662 256.971 L 252.350 249.941 253.446 248.505 C 254.048 247.715,256.984 244.620,259.971 241.628 C 279.375 222.186,283.762 213.836,283.078 197.645 C 282.661 187.788,280.148 180.936,274.843 175.200 L 273.178 173.400 274.603 175.800 C 279.844 184.627,281.114 202.848,277.214 213.271 C 276.439 215.342,272.683 221.947,272.023 222.400 C 271.863 222.510,271.567 222.903,271.365 223.273 C 270.837 224.243,264.702 230.835,264.508 230.641 C 264.418 230.552,264.966 229.606,265.724 228.539 C 267.693 225.771,271.477 217.859,272.296 214.800 C 274.922 204.982,270.549 186.972,262.647 175.065 C 259.326 170.060,260.924 170.059,266.951 175.061 C 269.855 177.472,270.144 177.465,268.527 175.022 C 266.537 172.013,262.254 168.296,257.942 165.837 C 252.461 162.709,247.600 159.529,247.600 159.071 C 247.600 157.901,255.537 148.800,256.557 148.800 C 256.682 148.800,257.169 149.555,257.640 150.478 M139.807 155.100 C 140.339 155.705,140.780 156.360,140.787 156.556 C 140.834 157.859,134.793 163.818,128.207 168.969 C 127.103 169.832,125.750 170.980,125.200 171.521 C 124.650 172.061,123.795 172.771,123.300 173.098 C 120.538 174.921,123.141 173.912,127.871 171.325 C 134.829 167.520,137.622 165.623,140.532 162.723 C 143.497 159.770,144.371 159.816,144.395 162.927 C 144.411 165.093,135.868 171.861,125.400 177.976 C 115.124 183.979,108.244 190.552,104.286 198.146 C 102.584 201.412,102.367 199.950,103.599 193.513 C 105.484 183.658,107.791 178.601,112.346 174.338 C 114.999 171.855,115.863 171.145,118.500 169.282 C 119.215 168.777,122.379 166.527,125.532 164.282 C 128.685 162.037,132.502 159.341,134.014 158.292 C 135.527 157.242,137.081 155.847,137.468 155.192 C 138.336 153.724,138.586 153.714,139.807 155.100 M238.931 171.900 C 239.066 173.385,239.667 176.040,240.266 177.800 C 242.836 185.349,241.814 189.207,235.684 195.100 C 232.407 198.250,231.981 198.800,232.818 198.800 C 235.477 198.799,242.800 193.653,242.800 191.784 C 242.800 191.463,243.070 191.200,243.400 191.200 C 244.272 191.200,244.187 195.486,243.159 203.361 C 242.336 209.669,242.332 213.361,243.145 216.200 C 243.458 217.294,243.512 217.189,243.756 215.000 C 243.903 213.680,244.763 209.450,245.667 205.600 C 246.952 200.125,247.320 197.751,247.355 194.703 C 247.417 189.367,247.897 189.716,251.067 197.400 L 252.387 200.600 252.393 198.058 C 252.408 192.400,248.912 184.567,245.457 182.518 C 244.386 181.883,244.237 179.895,245.284 180.221 C 246.746 180.676,251.863 184.351,253.395 186.047 C 255.072 187.903,255.245 187.953,254.816 186.456 C 254.058 183.814,251.345 180.711,247.888 178.530 C 245.443 176.988,242.326 173.708,241.013 171.294 C 239.358 168.253,238.617 168.469,238.931 171.900 M302.120 173.500 C 302.489 175.865,303.356 180.950,304.048 184.800 C 307.206 202.368,304.860 219.734,296.888 237.808 C 294.473 243.284,287.819 255.267,286.305 256.866 C 286.027 257.160,285.260 258.210,284.600 259.200 C 283.940 260.190,283.175 261.238,282.900 261.529 C 282.625 261.819,282.400 262.181,282.400 262.333 C 282.400 262.484,281.993 263.056,281.496 263.604 C 280.999 264.152,279.964 265.409,279.196 266.399 C 275.781 270.799,273.921 272.839,266.800 279.995 C 259.538 287.293,255.174 291.200,254.283 291.200 C 253.645 291.200,259.305 281.151,261.153 279.000 C 261.531 278.560,262.323 277.480,262.913 276.600 C 263.503 275.720,264.393 274.527,264.893 273.949 C 265.392 273.371,266.520 272.030,267.400 270.969 C 268.280 269.908,269.450 268.570,270.000 267.997 C 270.550 267.423,272.170 265.628,273.600 264.009 C 275.030 262.389,276.470 260.774,276.800 260.420 C 277.130 260.067,278.208 258.792,279.195 257.589 C 280.181 256.385,281.083 255.310,281.197 255.200 C 281.311 255.090,281.934 254.280,282.581 253.400 C 283.228 252.520,283.866 251.710,283.999 251.600 C 285.300 250.520,292.694 236.961,292.233 236.499 C 292.105 236.371,292.000 236.461,292.000 236.699 C 292.000 237.147,288.015 243.230,287.111 244.162 C 286.830 244.452,286.060 245.382,285.400 246.228 C 283.543 248.610,280.767 251.607,273.600 258.966 C 265.564 267.218,265.901 266.860,263.202 270.024 C 261.994 271.441,260.913 272.690,260.800 272.800 C 260.688 272.910,260.062 273.720,259.410 274.600 C 258.758 275.480,258.081 276.380,257.905 276.600 C 257.730 276.820,256.673 278.229,255.557 279.730 C 253.043 283.112,253.077 283.167,254.235 277.600 C 254.762 275.070,255.194 272.275,255.196 271.389 C 255.204 268.032,261.715 260.083,272.600 250.143 C 281.356 242.147,283.830 239.480,287.461 234.126 C 295.410 222.401,298.551 208.482,296.200 195.400 C 295.199 189.829,295.055 188.400,295.493 188.400 C 296.707 188.400,299.930 178.823,300.507 173.500 C 300.764 171.135,301.081 169.200,301.212 169.200 C 301.343 169.200,301.752 171.135,302.120 173.500 M215.934 171.990 C 211.731 172.742,210.864 174.114,208.377 183.954 C 206.498 191.386,206.984 192.969,209.184 186.586 C 211.494 179.884,212.171 179.301,219.800 177.431 C 225.707 175.984,229.200 174.710,229.200 174.004 C 229.200 172.656,220.012 171.261,215.934 171.990 M133.600 180.649 C 131.227 181.963,126.992 185.139,125.000 187.098 C 123.275 188.794,120.517 191.886,119.202 193.600 C 118.442 194.590,117.720 195.490,117.597 195.600 C 114.724 198.169,107.170 214.096,106.323 219.367 C 105.983 221.482,105.260 220.248,105.006 217.121 C 103.705 201.060,114.382 186.162,131.348 180.366 C 135.836 178.833,136.686 178.940,133.600 180.649 M167.066 184.197 C 172.876 185.923,175.151 189.776,175.807 199.000 C 175.947 200.980,176.165 203.034,176.291 203.564 L 176.519 204.528 173.359 204.277 C 162.230 203.395,152.376 197.865,152.419 192.526 C 152.477 185.194,158.634 181.693,167.066 184.197 M264.721 187.570 C 271.544 204.079,270.158 215.131,259.400 229.992 C 258.960 230.600,257.836 232.189,256.902 233.524 C 253.161 238.870,253.796 234.407,258.201 224.400 C 261.354 217.236,264.000 209.842,264.000 208.194 C 264.000 208.034,263.408 209.050,262.684 210.452 C 261.960 211.853,259.932 215.430,258.179 218.400 C 256.425 221.370,254.424 225.060,253.732 226.600 C 253.040 228.140,252.098 230.210,251.639 231.200 L 250.805 233.000 250.969 228.000 C 251.215 220.547,252.438 216.865,257.777 207.502 C 262.085 199.947,263.940 191.314,262.657 184.800 L 262.381 183.400 263.090 184.370 C 263.481 184.904,264.215 186.344,264.721 187.570 M143.392 191.992 C 144.918 193.677,144.097 197.601,140.862 204.091 C 134.701 216.449,133.944 228.427,138.616 239.621 C 139.901 242.700,140.634 243.816,143.594 247.200 L 144.469 248.200 143.706 247.000 C 138.679 239.101,137.852 220.930,142.042 210.440 C 143.267 207.372,147.269 200.252,148.034 199.779 C 149.166 199.079,148.981 200.492,147.547 203.489 C 142.177 214.712,143.233 228.012,150.468 240.274 C 151.531 242.074,152.400 243.654,152.400 243.784 C 152.400 244.066,155.599 249.201,156.188 249.864 C 156.414 250.120,157.230 251.088,158.000 252.017 C 160.076 254.520,165.433 259.868,168.602 262.600 C 181.385 273.623,187.375 283.189,190.520 297.606 C 192.497 306.666,192.290 307.410,189.384 301.705 C 187.492 297.991,185.384 294.598,182.926 291.307 C 181.313 289.148,181.278 289.105,180.294 287.967 C 179.802 287.399,178.590 285.974,177.600 284.800 C 175.298 282.069,175.075 281.836,164.595 271.165 C 154.692 261.082,152.822 259.053,149.939 255.260 C 148.827 253.797,147.748 252.421,147.540 252.202 C 146.937 251.564,148.372 254.346,150.325 257.600 C 152.560 261.323,154.502 263.999,158.000 268.177 C 158.770 269.096,160.030 270.636,160.800 271.599 C 161.570 272.561,162.607 273.794,163.105 274.338 C 163.603 274.883,164.863 276.308,165.905 277.505 C 166.947 278.702,168.250 280.163,168.800 280.751 C 169.350 281.340,170.700 282.878,171.800 284.171 C 172.900 285.464,173.992 286.719,174.228 286.961 C 175.074 287.830,177.655 291.678,177.497 291.836 C 177.409 291.924,176.914 291.548,176.399 290.998 C 175.883 290.449,175.244 290.000,174.979 290.000 C 174.715 290.000,174.283 289.741,174.020 289.424 C 173.537 288.842,167.521 285.189,160.200 281.032 C 153.343 277.138,150.848 275.505,145.819 271.620 C 135.955 263.997,131.155 254.755,127.009 235.400 C 124.504 223.707,123.194 220.238,123.204 225.324 C 123.216 231.936,125.977 248.319,127.783 252.500 C 128.727 254.685,127.108 252.669,125.534 249.700 C 118.702 236.812,117.443 218.636,122.601 207.360 C 123.773 204.799,124.271 204.708,123.606 207.177 C 123.092 209.086,123.039 215.139,123.518 217.200 C 123.816 218.485,123.919 218.239,124.770 214.200 C 126.699 205.035,129.441 199.449,134.543 194.290 C 137.598 191.200,141.710 190.132,143.392 191.992 M181.650 211.755 C 182.612 212.280,184.300 213.004,185.400 213.365 C 196.831 217.110,194.371 231.867,181.879 234.487 C 178.436 235.209,172.330 233.498,172.078 231.739 C 171.902 230.509,176.670 227.542,182.600 225.191 C 185.943 223.866,186.240 223.446,183.600 223.776 C 181.285 224.065,177.936 225.152,173.600 227.019 C 169.614 228.736,167.436 228.638,167.278 226.735 C 167.104 224.643,168.794 223.427,175.080 221.124 L 180.200 219.247 177.187 219.224 C 175.530 219.211,173.190 219.479,171.987 219.819 C 167.878 220.983,166.000 221.043,166.000 220.011 C 166.000 218.772,167.889 217.138,170.338 216.259 C 172.982 215.311,173.184 214.935,171.226 214.604 C 169.100 214.245,169.448 213.538,172.502 212.012 C 175.682 210.423,179.035 210.329,181.650 211.755 M225.018 240.800 C 224.412 244.338,221.946 249.204,219.114 252.447 C 217.869 253.873,215.154 257.089,214.307 258.140 C 213.926 258.613,213.463 259.183,213.278 259.408 C 211.337 261.757,209.720 266.984,210.179 269.430 C 210.511 271.196,210.876 270.895,211.779 268.113 C 212.562 265.697,214.484 262.753,217.596 259.197 C 225.086 250.644,227.219 245.951,225.870 241.000 L 225.326 239.000 225.018 240.800 M151.729 281.466 C 155.068 282.932,158.430 284.526,159.200 285.009 C 159.970 285.491,162.400 286.937,164.600 288.221 C 170.203 291.493,173.889 294.083,177.371 297.196 C 179.832 299.396,180.282 299.880,183.564 303.848 C 185.675 306.400,189.176 316.000,187.996 316.000 C 187.831 316.000,186.941 315.000,186.018 313.777 C 181.720 308.085,177.871 304.938,164.853 296.476 C 152.377 288.367,145.200 281.989,145.200 279.013 C 145.200 278.625,145.612 278.780,151.729 281.466 " stroke="none" fill="#142453" fill-rule="evenodd"></path><path id="path1" d="M186.000 59.253 C 107.978 67.206,51.118 137.328,59.401 215.378 C 68.006 296.468,144.082 353.761,224.551 339.752 C 304.171 325.891,356.262 247.628,338.335 168.800 C 322.553 99.403,256.699 52.046,186.000 59.253 M215.400 69.400 C 312.750 80.689,364.169 191.705,309.793 273.200 C 249.968 362.861,113.699 346.401,76.388 245.007 C 42.872 153.924,118.662 58.183,215.400 69.400 M156.500 90.991 C 151.467 92.411,148.400 95.363,148.400 98.787 C 148.400 99.784,148.247 99.793,150.625 98.657 C 168.870 89.944,190.655 100.458,194.762 119.958 C 195.549 123.694,195.107 123.433,192.800 118.800 C 187.232 107.618,176.930 99.993,170.626 102.390 C 169.112 102.966,169.339 103.383,172.069 105.042 C 184.401 112.533,191.719 120.577,194.958 130.198 C 196.473 134.700,195.173 135.521,192.566 131.709 C 180.418 113.940,167.007 106.646,149.000 108.012 C 145.750 108.259,145.993 108.420,151.400 109.606 C 167.388 113.113,181.141 122.654,184.981 132.900 C 186.235 136.244,185.894 136.305,183.594 133.146 C 173.692 119.549,144.826 108.735,130.297 113.179 C 122.018 115.712,109.460 129.833,104.843 141.800 C 102.404 148.122,102.438 149.299,104.923 144.589 C 111.529 132.068,121.438 122.850,132.863 118.595 C 138.198 116.609,139.234 116.795,135.489 119.067 C 122.255 127.098,112.165 138.604,107.019 151.533 C 105.175 156.167,105.285 156.278,108.450 152.972 C 109.853 151.507,113.250 148.681,116.000 146.691 C 126.330 139.214,128.061 137.277,128.450 132.754 C 129.678 118.456,142.820 116.326,158.400 127.901 C 164.633 132.531,167.958 134.093,171.918 134.249 C 179.209 134.536,174.733 137.609,167.050 137.591 C 161.576 137.578,160.735 137.236,151.200 131.156 C 142.203 125.418,139.601 125.371,136.882 130.895 C 133.525 137.714,135.321 141.286,145.371 147.782 C 148.617 149.880,149.947 150.568,149.534 149.933 C 149.200 149.420,147.773 148.258,146.363 147.350 C 137.995 141.964,135.990 134.223,142.730 133.319 C 147.206 132.718,155.600 141.031,155.600 146.064 C 155.600 147.964,156.275 147.337,156.854 144.900 C 157.512 142.130,157.903 142.073,159.160 144.567 C 160.308 146.845,159.974 151.250,158.144 157.968 C 156.640 163.489,156.871 166.837,158.875 168.560 C 160.669 170.104,166.758 171.625,171.080 171.610 C 177.789 171.587,178.907 172.354,180.805 178.279 C 181.470 180.356,182.445 182.904,182.970 183.941 C 185.075 188.094,185.280 193.615,183.591 200.600 C 181.691 208.456,183.044 209.987,192.995 211.245 C 196.551 211.694,198.853 211.499,203.000 210.395 C 210.403 208.425,209.937 210.921,202.251 214.406 C 194.108 218.098,195.119 228.500,204.063 233.032 C 208.423 235.241,216.014 235.701,219.905 233.990 C 224.305 232.056,221.225 229.542,210.133 226.013 C 202.643 223.629,202.168 223.088,207.800 223.355 C 214.339 223.665,218.405 224.924,222.186 227.810 C 224.429 229.523,224.148 229.693,225.181 225.994 L 226.016 223.000 224.908 222.063 C 222.899 220.365,219.009 218.802,214.792 217.999 C 209.993 217.084,209.248 216.646,211.452 216.034 C 214.580 215.166,219.655 215.965,223.636 217.955 L 226.000 219.136 225.997 217.868 C 225.993 215.855,222.157 213.664,217.102 212.787 C 214.195 212.282,214.002 211.926,216.236 211.188 C 218.064 210.585,220.607 210.968,223.072 212.219 C 225.412 213.406,225.309 213.401,225.006 212.300 C 224.762 211.411,224.767 211.410,225.411 212.200 C 230.363 218.277,229.571 231.560,223.987 236.061 C 220.382 238.966,213.305 239.728,206.157 237.980 C 198.970 236.222,185.848 237.095,182.271 239.568 C 176.998 243.214,176.665 247.764,181.005 256.854 C 184.163 263.469,184.321 263.511,183.612 257.553 C 183.038 252.721,183.479 249.507,184.816 248.792 C 185.919 248.201,186.000 248.277,186.005 249.900 C 186.010 251.709,186.795 254.687,187.981 257.400 C 188.821 259.321,196.807 271.726,197.049 271.485 C 197.113 271.420,196.891 269.575,196.554 267.384 C 195.794 262.440,195.985 256.483,196.978 254.100 C 198.038 251.557,198.400 252.018,198.400 255.916 C 198.400 258.939,200.112 270.645,200.630 271.163 C 201.412 271.945,209.600 249.913,209.600 247.028 C 209.600 245.156,210.376 246.340,210.766 248.808 C 211.363 252.587,210.579 256.271,206.595 268.394 C 201.522 283.832,200.882 287.626,202.416 293.161 C 204.300 299.959,214.832 318.240,215.128 315.226 C 215.352 312.948,214.007 307.541,212.137 303.200 C 207.172 291.676,206.456 289.119,207.011 284.883 L 207.310 282.600 208.019 285.800 C 208.898 289.767,209.614 291.434,213.461 298.461 C 215.142 301.531,217.037 305.518,217.672 307.322 L 218.827 310.600 218.648 307.200 C 218.549 305.330,217.905 301.460,217.216 298.600 C 213.997 285.231,215.386 279.315,225.188 264.653 C 231.665 254.963,234.800 248.532,234.800 244.934 C 234.800 244.309,234.963 244.054,235.250 244.231 C 235.558 244.421,235.634 245.782,235.492 248.555 C 235.175 254.714,233.711 258.342,226.728 270.279 C 220.639 280.689,219.234 286.957,221.275 294.600 C 221.628 295.920,222.038 297.533,222.187 298.185 C 222.435 299.271,222.586 299.047,223.967 295.535 C 225.927 290.552,227.539 287.697,233.188 279.199 C 239.975 268.991,241.532 264.590,241.711 255.104 C 241.816 249.576,242.000 249.348,243.002 253.500 C 245.301 263.021,243.323 271.154,235.955 282.469 C 228.328 294.181,226.072 299.898,225.019 310.173 C 224.789 312.418,224.814 312.513,225.488 311.946 C 241.903 298.107,246.253 291.717,249.827 276.200 C 251.012 271.053,250.118 259.709,248.241 256.080 C 247.888 255.396,247.600 253.881,247.600 252.704 C 247.600 250.763,247.130 249.633,242.466 240.362 C 233.659 222.855,231.861 214.959,234.688 206.200 L 235.462 203.800 235.669 209.200 C 235.963 216.850,238.124 222.994,244.286 233.700 C 246.402 237.377,246.575 237.463,246.225 234.664 C 245.151 226.064,247.693 216.755,254.128 205.728 C 258.715 197.867,259.768 191.242,257.608 183.828 C 255.192 175.534,252.898 171.941,245.205 164.400 C 238.708 158.032,238.637 157.930,237.782 153.800 C 235.533 142.941,240.611 133.514,248.407 134.078 C 253.229 134.427,255.027 139.083,252.610 144.962 L 251.639 147.325 253.244 145.762 C 258.179 140.960,259.096 135.926,255.901 131.184 C 252.934 126.781,249.032 126.949,240.784 131.837 C 232.607 136.682,228.943 137.925,225.434 137.044 C 224.120 136.715,224.031 135.357,225.300 135.004 C 227.389 134.423,229.755 133.217,235.800 129.652 C 248.013 122.449,252.502 121.652,257.178 125.857 C 262.118 130.298,263.623 137.323,260.843 142.971 L 259.487 145.728 260.243 147.164 C 261.558 149.658,264.839 152.554,270.812 156.490 C 279.532 162.236,285.134 167.822,289.697 175.320 L 291.693 178.600 291.427 176.460 C 290.213 166.667,282.751 154.769,270.725 143.449 L 266.600 139.565 269.800 141.146 C 281.560 146.954,291.609 159.007,294.879 171.226 C 295.880 174.965,296.287 174.664,296.360 170.129 C 296.660 151.550,281.483 131.039,263.200 125.313 L 260.200 124.374 263.400 124.569 C 278.319 125.478,293.649 138.963,298.617 155.547 C 299.810 159.530,300.108 158.539,299.897 151.300 C 299.191 127.106,282.375 111.858,256.400 111.856 C 243.438 111.856,239.292 113.523,228.184 123.200 C 225.533 125.510,222.562 128.074,221.582 128.897 C 218.344 131.618,220.645 130.509,231.200 124.263 C 241.959 117.896,247.008 115.977,252.858 116.031 C 256.028 116.060,260.886 117.057,258.352 117.158 C 250.691 117.465,244.739 120.046,230.200 129.364 C 219.807 136.026,212.004 138.270,205.000 136.612 C 203.460 136.248,201.337 135.971,200.282 135.996 C 196.818 136.080,195.713 134.982,197.270 133.002 C 203.881 124.597,197.969 104.485,186.667 96.934 C 179.301 92.012,163.744 88.948,156.500 90.991 M199.400 94.562 C 198.300 94.834,196.789 95.377,196.043 95.768 L 194.685 96.480 196.801 97.637 C 200.137 99.461,201.415 100.602,204.061 104.116 C 209.949 111.936,210.698 112.531,211.850 110.303 C 214.183 105.793,212.623 100.869,208.071 98.369 C 204.966 96.665,208.566 96.418,211.823 98.112 C 219.525 102.117,218.452 117.956,209.710 129.317 C 207.633 132.016,207.780 132.054,212.292 129.990 C 216.447 128.089,218.657 126.337,227.340 118.060 L 230.080 115.448 229.641 113.224 C 227.250 101.091,211.731 91.515,199.400 94.562 M230.400 96.681 C 229.850 96.776,228.718 97.030,227.885 97.246 L 226.371 97.639 228.408 99.919 C 230.636 102.414,233.427 107.574,233.816 109.916 C 233.952 110.732,234.127 111.610,234.206 111.867 C 234.299 112.169,235.246 111.859,236.875 110.994 C 241.250 108.672,247.193 107.309,255.600 106.701 L 257.000 106.600 254.575 104.143 C 249.402 98.901,237.981 95.376,230.400 96.681 M127.610 139.200 C 127.111 140.190,125.689 142.222,124.451 143.716 C 118.291 151.149,117.832 151.911,118.347 153.842 C 119.168 156.912,124.735 154.972,131.051 149.415 L 132.962 147.733 131.145 143.566 C 130.145 141.275,129.145 138.950,128.923 138.400 C 128.523 137.411,128.509 137.420,127.610 139.200 M253.207 152.276 C 250.393 155.289,248.000 158.415,248.000 159.078 C 248.000 159.417,251.366 161.571,258.571 165.845 C 263.482 168.757,267.465 172.406,269.116 175.503 C 271.444 179.871,271.380 180.222,268.768 177.429 C 266.572 175.082,263.086 172.392,261.405 171.747 C 261.014 171.597,261.586 172.775,262.812 174.647 C 269.007 184.105,272.668 195.227,273.067 205.800 C 273.380 214.078,271.947 219.130,267.049 227.021 L 265.573 229.400 267.454 227.400 C 270.498 224.163,273.926 219.260,275.842 215.400 C 280.966 205.078,280.296 187.081,274.377 176.072 C 272.984 173.481,272.915 173.232,273.776 173.910 C 283.861 181.843,286.627 203.388,279.462 218.200 C 276.417 224.493,270.845 231.272,259.048 243.032 C 251.938 250.120,252.074 249.455,255.027 262.741 C 255.216 263.594,255.388 263.463,256.867 261.341 C 259.424 257.671,262.364 254.453,271.423 245.409 C 287.522 229.337,292.131 220.075,292.131 203.800 C 292.131 185.612,284.220 171.211,268.200 160.235 C 261.409 155.582,259.667 154.081,257.989 151.432 C 256.256 148.696,256.608 148.634,253.207 152.276 M138.000 154.769 C 138.000 155.444,135.910 157.635,134.610 158.323 C 133.905 158.695,131.519 160.350,129.308 162.000 C 127.097 163.650,123.063 166.529,120.344 168.399 C 109.620 175.771,106.544 180.370,104.025 192.794 C 102.529 200.175,102.600 200.730,104.558 196.982 C 108.369 189.689,114.750 183.935,127.553 176.249 C 140.870 168.253,145.711 163.431,143.385 160.477 C 143.332 160.410,142.354 161.342,141.213 162.549 C 138.687 165.220,134.895 167.863,128.800 171.203 C 126.270 172.589,123.300 174.291,122.200 174.984 C 121.100 175.678,119.930 176.384,119.600 176.554 C 118.477 177.131,123.595 172.437,129.507 167.468 C 139.057 159.440,141.093 156.989,139.565 155.362 C 138.629 154.366,138.000 154.128,138.000 154.769 M241.016 170.700 C 242.943 174.053,244.021 175.217,247.779 178.005 C 252.937 181.831,255.200 184.631,255.200 187.187 C 255.200 188.255,255.288 188.299,252.841 186.002 C 247.570 181.053,241.959 178.511,246.779 183.255 C 250.348 186.768,252.777 193.200,252.793 199.180 C 252.801 202.030,252.497 201.991,251.397 199.000 C 250.992 197.900,250.018 195.650,249.231 194.000 L 247.800 191.000 247.549 195.400 C 247.375 198.453,246.841 201.637,245.806 205.800 C 244.862 209.592,244.233 213.198,244.097 215.600 L 243.881 219.400 243.273 217.800 C 242.384 215.459,242.426 206.734,243.360 199.568 C 243.802 196.181,243.995 193.246,243.820 192.568 L 243.519 191.400 242.859 192.396 C 240.649 195.737,236.745 198.431,233.300 198.993 C 230.941 199.378,231.093 199.086,235.375 194.994 C 241.510 189.131,242.405 185.880,240.039 178.044 C 237.632 170.074,238.201 165.801,241.016 170.700 M301.098 171.600 C 300.987 171.930,300.688 173.783,300.434 175.718 C 299.917 179.656,298.127 185.013,296.439 187.674 L 295.322 189.435 296.111 193.018 C 297.232 198.103,297.309 209.576,296.256 214.379 C 293.037 229.061,288.560 235.695,270.104 253.136 C 259.772 262.900,255.866 267.985,255.397 272.281 C 255.248 273.646,254.800 276.256,254.402 278.081 C 253.491 282.260,253.474 282.256,256.094 278.517 C 259.978 272.974,263.244 269.186,271.246 260.945 C 283.738 248.081,287.300 243.913,291.444 237.313 C 292.630 235.424,293.600 233.979,293.600 234.104 C 293.600 234.655,290.602 241.278,289.120 244.000 C 285.618 250.433,280.939 256.481,271.014 267.400 C 264.996 274.021,259.481 281.581,255.576 288.560 C 253.931 291.501,254.277 291.312,260.154 286.063 C 291.899 257.710,308.839 221.053,304.582 189.920 C 303.657 183.159,301.329 170.914,301.098 171.600 M224.845 172.001 C 231.948 173.324,230.724 174.988,220.847 177.440 C 212.388 179.540,211.859 179.969,209.450 186.664 C 207.472 192.158,206.357 191.592,207.650 185.751 C 209.347 178.085,211.065 173.516,212.550 172.718 C 214.615 171.608,220.800 171.248,224.845 172.001 M131.000 180.752 C 116.079 186.149,105.944 198.897,105.312 213.063 C 104.988 220.312,105.389 221.177,106.829 216.344 C 110.847 202.866,120.476 189.066,130.771 182.030 C 134.001 179.823,134.031 179.656,131.000 180.752 M158.636 184.047 C 155.105 184.876,153.149 187.341,152.549 191.721 C 151.815 197.072,161.608 202.880,173.549 204.174 L 176.099 204.451 175.830 201.325 C 175.044 192.179,174.160 189.216,171.566 187.033 C 168.210 184.209,163.038 183.015,158.636 184.047 M262.997 189.921 C 262.993 196.543,262.235 199.493,258.870 205.979 C 253.373 216.575,252.769 217.889,252.015 220.890 C 251.089 224.572,250.490 232.814,251.265 231.200 C 251.529 230.650,252.594 228.366,253.633 226.125 C 254.671 223.883,256.991 219.607,258.786 216.622 C 260.582 213.638,262.673 209.892,263.431 208.298 C 266.726 201.376,263.396 212.922,259.307 222.600 C 255.654 231.245,253.767 236.864,254.952 235.567 C 256.758 233.590,264.175 222.453,265.451 219.800 C 269.566 211.248,269.493 202.089,265.215 189.942 C 263.125 184.010,263.000 184.008,262.997 189.921 M138.639 191.791 C 133.709 193.548,127.731 202.812,125.599 212.000 C 123.889 219.366,123.968 219.146,123.468 218.000 C 123.228 217.450,123.029 214.780,123.026 212.067 C 123.020 207.144,123.018 207.138,122.368 208.670 C 117.789 219.451,119.064 235.880,125.504 249.081 C 127.022 252.193,127.433 252.605,126.792 250.374 C 124.296 241.690,121.829 219.953,123.550 221.820 C 124.190 222.513,125.530 227.314,127.007 234.200 C 132.793 261.176,138.838 269.099,164.176 282.911 C 166.609 284.237,170.484 286.585,172.787 288.128 L 176.974 290.934 175.590 289.188 C 174.829 288.227,171.595 284.458,168.403 280.811 C 154.848 265.325,151.498 260.949,148.230 254.459 C 146.387 250.801,146.619 250.425,148.872 253.418 C 152.056 257.649,155.945 261.895,166.706 272.891 C 180.417 286.900,186.443 294.461,190.050 302.178 C 191.685 305.677,191.853 305.176,190.796 299.948 C 187.611 284.201,182.425 275.528,168.914 263.354 C 158.525 253.994,155.890 250.815,150.549 241.200 C 142.741 227.146,141.746 212.163,147.943 202.000 C 148.876 200.470,148.992 200.000,148.437 200.000 C 147.928 200.000,143.551 207.663,142.267 210.800 C 138.147 220.870,138.886 237.939,143.823 246.758 L 144.855 248.600 142.520 246.188 C 133.859 237.239,133.080 218.056,140.784 203.400 C 145.577 194.280,144.717 189.625,138.639 191.791 M174.376 211.551 C 170.517 213.061,168.987 214.394,171.100 214.406 C 173.927 214.422,173.312 215.706,169.971 216.763 C 165.174 218.281,165.408 221.318,170.217 219.943 C 171.818 219.486,174.784 219.066,177.200 218.955 C 182.209 218.725,181.961 219.029,175.229 221.371 C 169.134 223.492,166.774 225.228,167.382 227.143 C 167.865 228.666,170.615 228.316,174.800 226.201 C 178.062 224.552,181.877 223.599,185.142 223.617 L 188.200 223.633 184.400 224.924 C 178.925 226.784,172.600 230.385,172.600 231.641 C 172.600 234.099,180.851 235.113,185.000 233.165 C 194.930 228.502,194.805 216.208,184.800 213.502 C 184.030 213.294,182.478 212.601,181.351 211.962 C 178.965 210.609,177.070 210.497,174.376 211.551 M225.979 240.300 C 227.532 245.892,225.706 250.342,218.387 258.800 C 214.342 263.475,212.721 265.981,211.722 269.108 C 210.970 271.464,210.368 271.618,209.922 269.570 C 209.114 265.870,211.136 261.400,216.543 254.929 C 222.156 248.212,224.800 243.426,224.800 239.982 C 224.800 238.325,225.482 238.509,225.979 240.300 M145.600 279.410 C 145.600 281.792,152.655 287.847,165.400 296.403 C 179.249 305.699,182.990 308.843,187.310 314.819 L 188.019 315.800 187.765 314.400 C 185.513 301.969,171.047 289.791,146.100 279.324 C 145.825 279.209,145.600 279.247,145.600 279.410 " stroke="none" fill="#fbd39c" fill-rule="evenodd"></path><path id="path2" d="M140.575 162.900 L 139.400 164.200 140.700 163.025 C 141.415 162.379,142.000 161.794,142.000 161.725 C 142.000 161.416,141.670 161.688,140.575 162.900 M243.512 216.418 C 243.414 217.087,243.483 217.728,243.667 217.841 C 243.850 217.955,244.000 217.407,244.000 216.624 C 244.000 214.879,243.753 214.775,243.512 216.418 M213.700 215.876 C 214.085 215.976,214.715 215.976,215.100 215.876 C 215.485 215.775,215.170 215.693,214.400 215.693 C 213.630 215.693,213.315 215.775,213.700 215.876 M177.100 219.082 C 177.595 219.178,178.405 219.178,178.900 219.082 C 179.395 218.987,178.990 218.909,178.000 218.909 C 177.010 218.909,176.605 218.987,177.100 219.082 M119.309 224.800 C 119.309 225.790,119.387 226.195,119.482 225.700 C 119.578 225.205,119.578 224.395,119.482 223.900 C 119.387 223.405,119.309 223.810,119.309 224.800 M205.107 223.490 C 205.826 223.579,206.906 223.577,207.507 223.486 C 208.108 223.395,207.520 223.322,206.200 223.324 C 204.880 223.326,204.388 223.401,205.107 223.490 M171.200 277.725 C 171.200 277.794,171.785 278.379,172.500 279.025 L 173.800 280.200 172.625 278.900 C 171.530 277.688,171.200 277.416,171.200 277.725 M220.109 287.600 C 220.109 288.590,220.187 288.995,220.282 288.500 C 220.378 288.005,220.378 287.195,220.282 286.700 C 220.187 286.205,220.109 286.610,220.109 287.600 " stroke="none" fill="#59596b" fill-rule="evenodd"></path><path id="path3" d="M163.700 95.487 C 164.305 95.578,165.295 95.578,165.900 95.487 C 166.505 95.395,166.010 95.320,164.800 95.320 C 163.590 95.320,163.095 95.395,163.700 95.487 M252.705 107.083 C 253.202 107.179,253.922 107.175,254.305 107.075 C 254.687 106.975,254.280 106.896,253.400 106.901 C 252.520 106.905,252.207 106.987,252.705 107.083 M149.100 107.882 C 149.595 107.978,150.405 107.978,150.900 107.882 C 151.395 107.787,150.990 107.709,150.000 107.709 C 149.010 107.709,148.605 107.787,149.100 107.882 M152.700 107.882 C 153.195 107.978,154.005 107.978,154.500 107.882 C 154.995 107.787,154.590 107.709,153.600 107.709 C 152.610 107.709,152.205 107.787,152.700 107.882 M216.914 109.400 C 216.917 110.500,216.995 110.903,217.087 110.295 C 217.179 109.686,217.177 108.786,217.082 108.295 C 216.987 107.803,216.911 108.300,216.914 109.400 M137.100 112.293 C 138.035 112.377,139.565 112.377,140.500 112.293 C 141.435 112.209,140.670 112.140,138.800 112.140 C 136.930 112.140,136.165 112.209,137.100 112.293 M182.800 119.800 C 183.546 120.570,184.247 121.200,184.357 121.200 C 184.467 121.200,183.946 120.570,183.200 119.800 C 182.454 119.030,181.753 118.400,181.643 118.400 C 181.533 118.400,182.054 119.030,182.800 119.800 M222.378 122.700 L 221.000 124.200 222.500 122.822 C 223.896 121.538,224.184 121.200,223.878 121.200 C 223.812 121.200,223.137 121.875,222.378 122.700 M177.600 122.525 C 177.600 122.594,178.185 123.179,178.900 123.825 L 180.200 125.000 179.025 123.700 C 177.930 122.488,177.600 122.216,177.600 122.525 M115.186 130.300 L 113.000 132.600 115.300 130.414 C 117.437 128.382,117.783 128.000,117.486 128.000 C 117.424 128.000,116.389 129.035,115.186 130.300 M120.575 130.500 L 119.400 131.800 120.700 130.625 C 121.912 129.530,122.184 129.200,121.875 129.200 C 121.806 129.200,121.221 129.785,120.575 130.500 M207.891 137.089 C 208.601 137.177,209.861 137.179,210.691 137.092 C 211.521 137.005,210.940 136.933,209.400 136.931 C 207.860 136.929,207.181 137.000,207.891 137.089 M137.200 141.725 C 137.200 141.794,137.785 142.379,138.500 143.025 L 139.800 144.200 138.625 142.900 C 137.530 141.688,137.200 141.416,137.200 141.725 M122.378 145.900 L 121.000 147.400 122.500 146.022 C 123.325 145.263,124.000 144.588,124.000 144.522 C 124.000 144.216,123.662 144.504,122.378 145.900 M159.709 147.600 C 159.709 148.590,159.787 148.995,159.882 148.500 C 159.978 148.005,159.978 147.195,159.882 146.700 C 159.787 146.205,159.709 146.610,159.709 147.600 M300.114 152.200 C 300.117 153.300,300.195 153.703,300.287 153.095 C 300.379 152.486,300.377 151.586,300.282 151.095 C 300.187 150.603,300.111 151.100,300.114 152.200 M136.378 161.500 L 135.000 163.000 136.500 161.622 C 137.325 160.863,138.000 160.188,138.000 160.122 C 138.000 159.816,137.662 160.104,136.378 161.500 M156.893 164.000 C 156.893 164.770,156.975 165.085,157.076 164.700 C 157.176 164.315,157.176 163.685,157.076 163.300 C 156.975 162.915,156.893 163.230,156.893 164.000 M277.400 167.600 C 278.259 168.480,279.052 169.200,279.162 169.200 C 279.272 169.200,278.659 168.480,277.800 167.600 C 276.941 166.720,276.148 166.000,276.038 166.000 C 275.928 166.000,276.541 166.720,277.400 167.600 M238.493 171.200 C 238.493 171.970,238.575 172.285,238.676 171.900 C 238.776 171.515,238.776 170.885,238.676 170.500 C 238.575 170.115,238.493 170.430,238.493 171.200 M121.464 174.333 C 120.689 175.143,120.553 175.467,120.989 175.467 C 121.325 175.467,121.508 175.375,121.396 175.263 C 121.284 175.151,121.586 174.641,122.066 174.130 C 122.546 173.618,122.852 173.200,122.745 173.200 C 122.637 173.200,122.061 173.710,121.464 174.333 M267.200 175.725 C 267.200 175.794,267.785 176.379,268.500 177.025 L 269.800 178.200 268.625 176.900 C 267.530 175.688,267.200 175.416,267.200 175.725 M241.309 184.400 C 241.309 185.390,241.387 185.795,241.482 185.300 C 241.578 184.805,241.578 183.995,241.482 183.500 C 241.387 183.005,241.309 183.410,241.309 184.400 M258.893 189.600 C 258.893 190.370,258.975 190.685,259.076 190.300 C 259.176 189.915,259.176 189.285,259.076 188.900 C 258.975 188.515,258.893 188.830,258.893 189.600 M114.000 191.800 C 113.028 192.790,112.323 193.600,112.433 193.600 C 112.543 193.600,113.428 192.790,114.400 191.800 C 115.372 190.810,116.077 190.000,115.967 190.000 C 115.857 190.000,114.972 190.810,114.000 191.800 M134.181 194.900 L 132.600 196.600 134.300 195.019 C 135.235 194.149,136.000 193.384,136.000 193.319 C 136.000 193.016,135.652 193.319,134.181 194.900 M279.342 198.600 C 279.341 200.580,279.408 201.440,279.492 200.512 C 279.576 199.584,279.577 197.964,279.495 196.912 C 279.412 195.860,279.343 196.620,279.342 198.600 M283.342 199.800 C 283.341 201.780,283.408 202.640,283.492 201.712 C 283.576 200.784,283.577 199.164,283.495 198.112 C 283.412 197.060,283.343 197.820,283.342 199.800 M305.334 199.600 C 305.334 201.250,305.405 201.925,305.491 201.100 C 305.578 200.275,305.578 198.925,305.491 198.100 C 305.405 197.275,305.334 197.950,305.334 199.600 M252.284 200.400 C 252.169 200.839,252.238 201.300,252.438 201.423 C 252.637 201.546,252.800 201.187,252.800 200.624 C 252.800 199.398,252.572 199.299,252.284 200.400 M268.531 207.000 C 268.533 208.540,268.605 209.121,268.692 208.291 C 268.779 207.461,268.777 206.201,268.689 205.491 C 268.600 204.781,268.529 205.460,268.531 207.000 M235.195 208.118 L 235.391 211.000 235.516 208.441 C 235.585 207.033,235.497 205.736,235.321 205.559 C 235.144 205.381,235.088 206.533,235.195 208.118 M217.505 211.083 C 218.002 211.179,218.722 211.175,219.105 211.075 C 219.487 210.975,219.080 210.896,218.200 210.901 C 217.320 210.905,217.007 210.987,217.505 211.083 M226.064 217.924 C 226.019 218.855,225.852 219.164,225.500 218.965 C 225.103 218.741,225.102 218.792,225.493 219.215 C 226.190 219.966,226.483 219.498,226.292 217.938 L 226.128 216.600 226.064 217.924 M139.328 226.800 C 139.328 228.230,139.401 228.815,139.489 228.100 C 139.578 227.385,139.578 226.215,139.489 225.500 C 139.401 224.785,139.328 225.370,139.328 226.800 M222.888 228.613 C 223.486 229.243,224.047 229.677,224.135 229.579 C 224.223 229.480,223.733 228.965,223.047 228.434 L 221.800 227.469 222.888 228.613 M246.124 232.200 C 246.126 233.520,246.201 234.012,246.290 233.293 C 246.379 232.574,246.377 231.494,246.286 230.893 C 246.195 230.292,246.122 230.880,246.124 232.200 M262.587 239.300 L 260.200 241.800 262.700 239.413 C 264.075 238.099,265.200 236.974,265.200 236.913 C 265.200 236.617,264.805 236.978,262.587 239.300 M279.387 244.100 L 277.000 246.600 279.500 244.213 C 280.875 242.899,282.000 241.774,282.000 241.713 C 282.000 241.417,281.605 241.778,279.387 244.100 M177.693 247.600 C 177.693 248.370,177.775 248.685,177.876 248.300 C 177.976 247.915,177.976 247.285,177.876 246.900 C 177.775 246.515,177.693 246.830,177.693 247.600 M265.986 250.700 L 263.800 253.000 266.100 250.814 C 268.237 248.782,268.583 248.400,268.286 248.400 C 268.224 248.400,267.189 249.435,265.986 250.700 M183.320 254.000 C 183.320 255.210,183.395 255.705,183.487 255.100 C 183.578 254.495,183.578 253.505,183.487 252.900 C 183.395 252.295,183.320 252.790,183.320 254.000 M278.378 253.500 L 277.000 255.000 278.500 253.622 C 279.325 252.863,280.000 252.188,280.000 252.122 C 280.000 251.816,279.662 252.104,278.378 253.500 M197.917 254.300 C 198.112 257.340,198.303 257.602,198.354 254.900 C 198.379 253.525,198.264 252.400,198.097 252.400 C 197.931 252.400,197.849 253.255,197.917 254.300 M160.400 255.400 C 161.146 256.170,161.847 256.800,161.957 256.800 C 162.067 256.800,161.546 256.170,160.800 255.400 C 160.054 254.630,159.353 254.000,159.243 254.000 C 159.133 254.000,159.654 254.630,160.400 255.400 M265.986 256.700 L 263.800 259.000 266.100 256.814 C 268.237 254.782,268.583 254.400,268.286 254.400 C 268.224 254.400,267.189 255.435,265.986 256.700 M163.600 258.600 C 164.346 259.370,165.047 260.000,165.157 260.000 C 165.267 260.000,164.746 259.370,164.000 258.600 C 163.254 257.830,162.553 257.200,162.443 257.200 C 162.333 257.200,162.854 257.830,163.600 258.600 M243.709 260.400 C 243.709 261.390,243.787 261.795,243.882 261.300 C 243.978 260.805,243.978 259.995,243.882 259.500 C 243.787 259.005,243.709 259.410,243.709 260.400 M157.200 263.400 C 157.946 264.170,158.647 264.800,158.757 264.800 C 158.867 264.800,158.346 264.170,157.600 263.400 C 156.854 262.630,156.153 262.000,156.043 262.000 C 155.933 262.000,156.454 262.630,157.200 263.400 M206.920 286.800 C 206.920 288.010,206.995 288.505,207.087 287.900 C 207.178 287.295,207.178 286.305,207.087 285.700 C 206.995 285.095,206.920 285.590,206.920 286.800 M236.185 302.500 L 234.200 304.600 236.300 302.615 C 238.251 300.771,238.583 300.400,238.285 300.400 C 238.222 300.400,237.277 301.345,236.185 302.500 M218.790 308.881 C 218.684 309.916,218.745 310.615,218.926 310.434 C 219.107 310.253,219.193 309.407,219.119 308.553 L 218.983 307.000 218.790 308.881 " stroke="none" fill="#867d80" fill-rule="evenodd"></path><path id="path4" d="M190.783 100.100 C 192.441 101.866,192.800 102.184,192.800 101.883 C 192.800 101.819,191.945 100.964,190.900 99.983 L 189.000 98.200 190.783 100.100 M209.600 98.925 C 209.600 98.994,210.185 99.579,210.900 100.225 L 212.200 101.400 211.025 100.100 C 209.930 98.888,209.600 98.616,209.600 98.925 M185.000 115.200 C 186.083 116.300,187.060 117.200,187.170 117.200 C 187.280 117.200,186.483 116.300,185.400 115.200 C 184.317 114.100,183.340 113.200,183.230 113.200 C 183.120 113.200,183.917 114.100,185.000 115.200 M182.800 119.400 C 183.546 120.170,184.247 120.800,184.357 120.800 C 184.467 120.800,183.946 120.170,183.200 119.400 C 182.454 118.630,181.753 118.000,181.643 118.000 C 181.533 118.000,182.054 118.630,182.800 119.400 M225.578 119.900 L 224.200 121.400 225.700 120.022 C 227.096 118.738,227.384 118.400,227.078 118.400 C 227.012 118.400,226.337 119.075,225.578 119.900 M117.186 122.300 L 115.000 124.600 117.300 122.414 C 119.437 120.382,119.783 120.000,119.486 120.000 C 119.424 120.000,118.389 121.035,117.186 122.300 M229.375 121.700 L 228.200 123.000 229.500 121.825 C 230.215 121.179,230.800 120.594,230.800 120.525 C 230.800 120.216,230.470 120.488,229.375 121.700 M115.375 130.500 L 114.200 131.800 115.500 130.625 C 116.712 129.530,116.984 129.200,116.675 129.200 C 116.606 129.200,116.021 129.785,115.375 130.500 M125.200 139.400 C 124.228 140.390,123.523 141.200,123.633 141.200 C 123.743 141.200,124.628 140.390,125.600 139.400 C 126.572 138.410,127.277 137.600,127.167 137.600 C 127.057 137.600,126.172 138.410,125.200 139.400 M273.600 146.200 C 275.460 148.070,277.072 149.600,277.182 149.600 C 277.292 149.600,275.860 148.070,274.000 146.200 C 272.140 144.330,270.528 142.800,270.418 142.800 C 270.308 142.800,271.740 144.330,273.600 146.200 M251.694 147.212 C 250.975 147.865,250.537 148.400,250.719 148.400 C 250.901 148.400,251.568 147.860,252.200 147.200 C 253.670 145.665,253.386 145.672,251.694 147.212 M252.989 152.100 L 250.200 155.000 253.100 152.211 C 254.695 150.677,256.000 149.372,256.000 149.311 C 256.000 149.017,255.580 149.406,252.989 152.100 M108.581 152.900 L 107.000 154.600 108.700 153.019 C 110.281 151.548,110.584 151.200,110.281 151.200 C 110.216 151.200,109.451 151.965,108.581 152.900 M240.400 159.725 C 240.400 159.794,240.985 160.379,241.700 161.025 L 243.000 162.200 241.825 160.900 C 240.730 159.688,240.400 159.416,240.400 159.725 M136.975 161.300 L 135.800 162.600 137.100 161.425 C 137.815 160.779,138.400 160.194,138.400 160.125 C 138.400 159.816,138.070 160.088,136.975 161.300 M280.800 164.525 C 280.800 164.594,281.385 165.179,282.100 165.825 L 283.400 167.000 282.225 165.700 C 281.130 164.488,280.800 164.216,280.800 164.525 M141.178 166.700 L 139.800 168.200 141.300 166.822 C 142.696 165.538,142.984 165.200,142.678 165.200 C 142.612 165.200,141.937 165.875,141.178 166.700 M277.800 167.600 C 278.659 168.480,279.452 169.200,279.562 169.200 C 279.672 169.200,279.059 168.480,278.200 167.600 C 277.341 166.720,276.548 166.000,276.438 166.000 C 276.328 166.000,276.941 166.720,277.800 167.600 M248.800 167.800 C 249.546 168.570,250.247 169.200,250.357 169.200 C 250.467 169.200,249.946 168.570,249.200 167.800 C 248.454 167.030,247.753 166.400,247.643 166.400 C 247.533 166.400,248.054 167.030,248.800 167.800 M242.800 174.125 C 242.800 174.194,243.385 174.779,244.100 175.425 L 245.400 176.600 244.225 175.300 C 243.130 174.088,242.800 173.816,242.800 174.125 M268.488 176.613 C 269.086 177.243,269.647 177.677,269.735 177.579 C 269.823 177.480,269.333 176.965,268.647 176.434 L 267.400 175.469 268.488 176.613 M212.175 180.500 L 211.000 181.800 212.300 180.625 C 213.015 179.979,213.600 179.394,213.600 179.325 C 213.600 179.016,213.270 179.288,212.175 180.500 M252.600 185.600 C 253.459 186.480,254.252 187.200,254.362 187.200 C 254.472 187.200,253.859 186.480,253.000 185.600 C 252.141 184.720,251.348 184.000,251.238 184.000 C 251.128 184.000,251.741 184.720,252.600 185.600 M111.781 187.700 L 110.200 189.400 111.900 187.819 C 113.481 186.348,113.784 186.000,113.481 186.000 C 113.416 186.000,112.651 186.765,111.781 187.700 M122.778 189.100 L 121.400 190.600 122.900 189.222 C 123.725 188.463,124.400 187.788,124.400 187.722 C 124.400 187.416,124.062 187.704,122.778 189.100 M236.985 193.700 L 235.000 195.800 237.100 193.815 C 239.051 191.971,239.383 191.600,239.085 191.600 C 239.022 191.600,238.077 192.545,236.985 193.700 M221.200 227.325 C 221.200 227.394,221.785 227.979,222.500 228.625 L 223.800 229.800 222.625 228.500 C 221.530 227.288,221.200 227.016,221.200 227.325 M188.800 230.600 C 187.828 231.590,187.123 232.400,187.233 232.400 C 187.343 232.400,188.228 231.590,189.200 230.600 C 190.172 229.610,190.877 228.800,190.767 228.800 C 190.657 228.800,189.772 229.610,188.800 230.600 M220.000 229.725 C 220.000 229.794,220.585 230.379,221.300 231.025 L 222.600 232.200 221.425 230.900 C 220.330 229.688,220.000 229.416,220.000 229.725 M266.378 235.100 L 265.000 236.600 266.500 235.222 C 267.896 233.938,268.184 233.600,267.878 233.600 C 267.812 233.600,267.137 234.275,266.378 235.100 M276.400 240.600 C 275.428 241.590,274.723 242.400,274.833 242.400 C 274.943 242.400,275.828 241.590,276.800 240.600 C 277.772 239.610,278.477 238.800,278.367 238.800 C 278.257 238.800,277.372 239.610,276.400 240.600 M180.175 240.900 L 179.000 242.200 180.300 241.025 C 181.512 239.930,181.784 239.600,181.475 239.600 C 181.406 239.600,180.821 240.185,180.175 240.900 M279.178 243.900 L 277.800 245.400 279.300 244.022 C 280.125 243.263,280.800 242.588,280.800 242.522 C 280.800 242.216,280.462 242.504,279.178 243.900 M270.587 246.500 L 268.200 249.000 270.700 246.613 C 272.075 245.299,273.200 244.174,273.200 244.113 C 273.200 243.817,272.805 244.178,270.587 246.500 M275.578 247.500 L 274.200 249.000 275.700 247.622 C 277.096 246.338,277.384 246.000,277.078 246.000 C 277.012 246.000,276.337 246.675,275.578 247.500 M265.787 256.500 L 263.400 259.000 265.900 256.613 C 267.275 255.299,268.400 254.174,268.400 254.113 C 268.400 253.817,268.005 254.178,265.787 256.500 M272.793 259.500 L 268.600 263.800 272.900 259.607 C 275.265 257.301,277.200 255.366,277.200 255.307 C 277.200 255.018,276.687 255.506,272.793 259.500 M141.200 267.400 C 142.617 268.830,143.867 270.000,143.977 270.000 C 144.087 270.000,143.017 268.830,141.600 267.400 C 140.183 265.970,138.933 264.800,138.823 264.800 C 138.713 264.800,139.783 265.970,141.200 267.400 M164.600 271.200 C 168.115 274.720,171.081 277.600,171.191 277.600 C 171.301 277.600,168.515 274.720,165.000 271.200 C 161.485 267.680,158.519 264.800,158.409 264.800 C 158.299 264.800,161.085 267.680,164.600 271.200 M174.000 267.725 C 174.000 267.794,174.585 268.379,175.300 269.025 L 176.600 270.200 175.425 268.900 C 174.330 267.688,174.000 267.416,174.000 267.725 M269.381 277.300 L 267.800 279.000 269.500 277.419 C 271.081 275.948,271.384 275.600,271.081 275.600 C 271.016 275.600,270.251 276.365,269.381 277.300 M263.178 283.500 L 261.800 285.000 263.300 283.622 C 264.125 282.863,264.800 282.188,264.800 282.122 C 264.800 281.816,264.462 282.104,263.178 283.500 " stroke="none" fill="#3b445d" fill-rule="evenodd"></path></g></svg>